<svg version="1.2" xmlns="http://www.w3.org/2000/svg" viewBox="0 0 24 24" width="24" height="24">
	<title>New Project</title>
	<style>
		.s0 { fill: #000000 } 
	</style>
	<path id="Background" class="s0" d="m2 4c0-1.1 0.9-2 2-2h16c1.1 0 2 0.9 2 2 0 1.1-0.9 2-2 2h-16c-1.1 0-2-0.9-2-2z"/>
	<path id="Layer 1" class="s0" d="m2 20c0-1.1 0.9-2 2-2h16c1.1 0 2 0.9 2 2 0 1.1-0.9 2-2 2h-16c-1.1 0-2-0.9-2-2z"/>
	<path id="Background copy" class="s0" d="m2 12c0-1.1 0.9-2 2-2h16c1.1 0 2 0.9 2 2 0 1.1-0.9 2-2 2h-16c-1.1 0-2-0.9-2-2z"/>
</svg>